PathFileType	4	(X/Y/Z)	./resultDataOpenSim/trcMotMarkerGrf/sub09/qtm-03-06.trc
DataRate	CameraRate	NumFrames	NumMarkers	Units	OrigDataRate	OrigDataStartFrame	OrigNumFrames
250.000000	250.000000	11	24	m	250.000000	431	492
Frame#	Time	L.Toe.Tip			R.Toe.Tip			L.Ankle.Lat			R.Ankle.Lat			L.Ankle.Med			R.Ankle.Med			L.Heel			R.Heel			L.Knee.Lat			R.Knee.Lat			L.Knee.Med			R.Knee.Med			L.Thigh.Upper			R.Thigh.Upper			L.ASIS			R.ASIS			V.Sacral			L.Acromium			R.Acromium			C7			L.Elbow			R.Elbow			L.Wrist.Lat			R.Wrist.Lat
		X1	Y1	Z1	X2	Y2	Z2	X3	Y3	Z3	X4	Y4	Z4	X5	Y5	Z5	X6	Y6	Z6	X7	Y7	Z7	X8	Y8	Z8	X9	Y9	Z9	X10	Y10	Z10	X11	Y11	Z11	X12	Y12	Z12	X13	Y13	Z13	X14	Y14	Z14	X15	Y15	Z15	X16	Y16	Z16	X17	Y17	Z17	X18	Y18	Z18	X19	Y19	Z19	X20	Y20	Z20	X21	Y21	Z21	X22	Y22	Z22	X23	Y23	Z23	X24	Y24	Z24

431	1.72	1.7130046	0.11088302	0.011788924	0.98537663	0.040840253	0.1313348	1.5608169	0.082876837	-0.01655896	0.87232475	0.10454332	0.18031519	1.5836352	0.11063169	0.075750986	0.88143425	0.14046882	0.089740467	1.5140785	0.022630993	0.034147217	0.78542604	0.11224259	0.12865542	1.4337901	0.48246982	-0.048968644	1.1147626	0.48983034	0.24355761	1.4366886	0.47459178	0.077973003	1.1034286	0.48275857	0.11744065	1.2563631	0.85793271	-0.081168325	1.1945716	0.88339924	0.28518633	1.3232756	0.94893115	-0.017236667	1.3144996	0.95994433	0.22459871	1.1502355	1.0042013	0.085665478	1.2688301	1.405817	-0.081642784	1.2707509	1.4235682	0.25130784	1.2003146	1.459607	0.086797042	1.0941927	1.0848552	-0.12036644	1.1588662	1.0722885	0.34557951	1.1558248	0.84026542	-0.19111123	1.3536603	0.87255885	0.33937298
432	1.724	1.7163703	0.10508081	0.012970844	0.98566839	0.04098078	0.13154667	1.5637285	0.08082116	-0.016007104	0.87515416	0.10635802	0.18094885	1.5866471	0.10830417	0.076525265	0.88340268	0.14206628	0.090557611	1.5151892	0.022203292	0.034454601	0.78716811	0.11523931	0.12945534	1.4412345	0.48171176	-0.049166801	1.1209985	0.48863963	0.24369369	1.4446557	0.47452329	0.077578723	1.1095815	0.48157201	0.11751814	1.263062	0.85743233	-0.082091941	1.2013438	0.88207415	0.28443992	1.3300626	0.94819204	-0.017860711	1.321339	0.95867984	0.22406194	1.1569212	1.0029779	0.085143367	1.2750948	1.4047731	-0.082196065	1.2763853	1.4224587	0.25080294	1.2061675	1.458429	0.08618479	1.100965	1.0835763	-0.12107486	1.1644044	1.0712153	0.34472324	1.1625996	0.83899291	-0.19168233	1.35896	0.87128382	0.33931795
433	1.728	1.720034	0.098347044	0.014354131	0.98600055	0.041161379	0.13175256	1.5666879	0.07917067	-0.015443794	0.87751674	0.10823892	0.18168784	1.5897578	0.10636368	0.077250375	0.88553235	0.14373209	0.091402953	1.5161762	0.0225023	0.034907912	0.78903603	0.11836083	0.13030129	1.4485347	0.4809154	-0.049458136	1.1274366	0.48742724	0.24387119	1.4524706	0.47438538	0.077096866	1.1156643	0.48023999	0.11746811	1.2696804	0.85701574	-0.083066018	1.2080215	0.8807037	0.28367084	1.3367614	0.94760248	-0.018450653	1.3282274	0.95741578	0.22352104	1.1635523	1.0018218	0.084660591	1.2813616	1.4037532	-0.082764276	1.2820625	1.4213572	0.25028712	1.2120243	1.4573098	0.085569494	1.1077858	1.082297	-0.12178441	1.1699943	1.0701757	0.34390616	1.1694695	0.83771843	-0.19224718	1.364234	0.86999865	0.33927065
434	1.732	1.7240339	0.091146908	0.015905442	0.98636569	0.041359489	0.13196992	1.5697142	0.078013545	-0.014994355	0.87960706	0.11023892	0.18254034	1.5930459	0.10481555	0.0777679	0.88781961	0.14546415	0.09229318	1.5172132	0.023512811	0.035441898	0.79103791	0.12161128	0.13122049	1.4556433	0.48020542	-0.04986055	1.1341526	0.48614005	0.24407037	1.4600912	0.47417248	0.076569278	1.1220093	0.47878565	0.1174805	1.2762473	0.85665156	-0.084066213	1.2148285	0.87927131	0.28291498	1.3433598	0.94717165	-0.019001357	1.3351487	0.95614875	0.22296245	1.170103	1.0007808	0.084211416	1.2876325	1.4027645	-0.083352413	1.2877829	1.4202745	0.249768	1.2178983	1.4562857	0.084935143	1.1146551	1.0810227	-0.12249749	1.1755943	1.069157	0.34310977	1.1764308	0.83644421	-0.19280182	1.3694511	0.86870328	0.33923087
435	1.736	1.7281298	0.08424716	0.017531404	0.98676888	0.041552912	0.13221849	1.5727498	0.077267961	-0.014787288	0.88167957	0.1123975	0.18343132	1.5964155	0.10353773	0.077996571	0.89025879	0.14726202	0.093241446	1.5183819	0.024948395	0.035854881	0.79319838	0.12499687	0.13223412	1.4625745	0.47973602	-0.050372898	1.1412177	0.48474181	0.24426981	1.4674951	0.4739653	0.076044406	1.1288298	0.47722455	0.1176585	1.2827983	0.85632472	-0.085067554	1.2223112	0.87774037	0.28226647	1.3498793	0.94689179	-0.019545103	1.3420867	0.95488586	0.22237968	1.176576	0.99988941	0.083812824	1.2939039	1.4018159	-0.083961471	1.2935388	1.4192252	0.24925505	1.2238169	1.4553914	0.084277238	1.1215773	1.0797496	-0.12321892	1.1811234	1.068153	0.34229295	1.1834794	0.8351758	-0.19333707	1.3745974	0.867399	0.33919453
436	1.74	1.7319543	0.078225742	0.019119867	0.98722168	0.041736808	0.13249151	1.5757369	0.076751062	-0.01487303	0.88388618	0.11474653	0.18431051	1.599688	0.10243236	0.077958329	0.89285212	0.14912684	0.094255245	1.5196811	0.026461131	0.035886275	0.7955588	0.12852567	0.13334903	1.4693983	0.4796547	-0.051003256	1.1486259	0.48326312	0.24444992	1.4747015	0.47392769	0.075541117	1.1359968	0.47557996	0.1178699	1.2893579	0.8560454	-0.086046937	1.2310168	0.87608004	0.28182425	1.3563371	0.94674106	-0.020123861	1.3490212	0.95364271	0.22177481	1.1829996	0.99914221	0.083496889	1.300167	1.4009201	-0.084586829	1.2993299	1.4182245	0.24875607	1.2298038	1.454651	0.083600939	1.1285574	1.0784766	-0.12395323	1.1865175	1.0671675	0.34140939	1.1906178	0.83392153	-0.19384845	1.3796796	0.86608883	0.33915458
437	1.744	1.7352514	0.073172567	0.020654979	0.98773773	0.041927427	0.13274196	1.5786559	0.076307472	-0.015203067	0.88623369	0.11730046	0.1851885	1.6027335	0.10148523	0.077729201	0.8956165	0.15105501	0.095333017	1.521048	0.027861966	0.035306547	0.79816792	0.13220328	0.13453798	1.4761516	0.48006296	-0.051769225	1.1562751	0.48176752	0.24459024	1.4817742	0.47425587	0.07503657	1.1433318	0.47389985	0.11797923	1.2959236	0.85584838	-0.086980267	1.2407695	0.8743216	0.28156514	1.3627247	0.94670157	-0.020757285	1.3559321	0.95243824	0.22115287	1.1894123	0.99849353	0.083285743	1.3064161	1.4000947	-0.085224043	1.3051508	1.4172857	0.24827332	1.2358597	1.454066	0.082917092	1.1355932	1.0772115	-0.12470087	1.1918237	1.0662227	0.3404657	1.1978519	0.83269168	-0.1943382	1.3847049	0.86477957	0.33910501
438	1.748	1.7379763	0.06878701	0.022220083	0.98832536	0.042141598	0.132922	1.581493	0.075877585	-0.015678353	0.8886731	0.12005494	0.186098	1.6054877	0.10069419	0.077383519	0.8985899	0.15302848	0.096457254	1.522389	0.029132915	0.034022628	0.80105845	0.13603577	0.13575261	1.4828883	0.4809854	-0.05262984	1.1640648	0.48029823	0.24468631	1.4888138	0.47509135	0.074481929	1.1509366	0.47220506	0.1180999	1.3024664	0.85578257	-0.087842279	1.250523	0.8725567	0.28132054	1.3690314	0.94677068	-0.021440101	1.3628008	0.95129209	0.22051715	1.1958254	0.99790539	0.083179629	1.3126524	1.3993573	-0.085872575	1.3109853	1.4164244	0.2478015	1.2419557	1.4535974	0.082240319	1.1426819	1.0759715	-0.12546329	1.1971875	1.0653547	0.33954225	1.2051846	0.83150069	-0.1948052	1.3896737	0.86348286	0.3390416
439	1.752	1.740227	0.064656661	0.023854128	0.98898368	0.042372993	0.1330391	1.5842017	0.075470939	-0.01621981	0.89117514	0.12299595	0.18705691	1.6079139	0.10000179	0.07697012	0.90181894	0.15502369	0.097597275	1.5236344	0.03029786	0.032224486	0.80424017	0.14003427	0.13695013	1.4898901	0.48234227	-0.053418936	1.1719768	0.47888756	0.24476491	1.4959318	0.47643661	0.073837638	1.158951	0.47048738	0.1184079	1.3089505	0.85588975	-0.088618128	1.2593055	0.87085516	0.28094448	1.37527	0.94695378	-0.022161949	1.369611	0.9502213	0.21986856	1.2021874	0.99737994	0.083168513	1.318881	1.3987201	-0.086531291	1.3168261	1.4156622	0.24732985	1.2480418	1.4531727	0.08157537	1.1498316	1.0747792	-0.1262476	1.2027233	1.0645934	0.33872587	1.212615	0.83036516	-0.1952427	1.3945866	0.86221187	0.33895957
440	1.756	1.7421355	0.060501219	0.025465733	0.98971315	0.042598739	0.13313952	1.5867251	0.075097284	-0.016793919	0.89374251	0.12610773	0.1880643	1.6100255	0.099327846	0.076512151	0.9053335	0.15703715	0.098728255	1.5247758	0.031349115	0.030353369	0.80771838	0.14420854	0.13810509	1.4975801	0.48394452	-0.053918959	1.1800481	0.47756005	0.24487105	1.5031941	0.47814162	0.073105246	1.1672192	0.4687781	0.1188588	1.3153613	0.85618679	-0.089319216	1.2669682	0.86922805	0.28044841	1.3814704	0.94725392	-0.022913176	1.376355	0.94923348	0.21920443	1.208394	0.99692993	0.083236632	1.3251069	1.3981863	-0.087190874	1.3226795	1.4150201	0.24684515	1.2540651	1.4527383	0.080900658	1.157054	1.0736585	-0.12705586	1.2084148	1.0639508	0.33802697	1.2201428	0.82929971	-0.1956462	1.3994498	0.86097901	0.3388513
441	1.76	1.7438118	0.056291419	0.026912403	0.99051717	0.042802145	0.13324634	1.5890542	0.07472886	-0.017375833	0.89639438	0.12937579	0.18911034	1.6119055	0.098633426	0.076037607	0.90914389	0.15909022	0.099854504	1.5258403	0.032287955	0.028764176	0.81150415	0.14855866	0.13921366	1.5060348	0.48555563	-0.054058264	1.188314	0.4762907	0.24504023	1.5105762	0.47997964	0.07232481	1.1755273	0.46712564	0.11930067	1.3217173	0.85666746	-0.089982086	1.273883	0.86767582	0.27993507	1.3876637	0.94767149	-0.023674328	1.3830381	0.94832479	0.21851596	1.2143652	0.9965337	0.083362171	1.3313305	1.3977504	-0.087833085	1.3285481	1.4145086	0.24633395	1.259977	1.4523038	0.08016293	1.1643494	1.0726272	-0.12787411	1.214145	1.0634329	0.3373776	1.2277712	0.82831723	-0.19601424	1.4042777	0.85979456	0.33870595
